<svg preserveAspectRatio="none" width="100%" height="100%" overflow="visible" style="display: block;" viewBox="0 0 220 154" fill="none" xmlns="http://www.w3.org/2000/svg">
<g id="Group 57">
<g id="Group 33">
<circle id="Ellipse 3" cx="115" cy="80" r="65" fill="var(--fill-0, #FDFDFD)" stroke="var(--stroke-0, black)" stroke-width="2"/>
<path id="Vector 2" d="M115 15V82L173 49.575" stroke="var(--stroke-0, black)" stroke-width="2"/>
<path id="Vector 7" d="M143.5 21C135.5 16.2 121.167 15 115 15V82.5L172.5 49.5C171.5 42.5 153.5 27 143.5 21Z" fill="var(--fill-0, black)" stroke="var(--stroke-0, black)"/>
<path id="Vector 9" d="M77 115L64.4925 141H41" stroke="var(--stroke-0, black)" stroke-width="2"/>
</g>
<path id="Vector 8" d="M138.5 36L160 9H179.5" stroke="var(--stroke-0, black)" stroke-width="2"/>
<rect id="Rectangle 84" x="186" width="34" height="2" fill="var(--fill-0, black)"/>
<rect id="Rectangle 88" y="137" width="34" height="2" fill="var(--fill-0, black)"/>
<rect id="Rectangle 85" x="186" y="5" width="34" height="2" fill="var(--fill-0, black)"/>
<rect id="Rectangle 89" y="142" width="34" height="2" fill="var(--fill-0, black)"/>
<rect id="Rectangle 86" x="186" y="10" width="34" height="2" fill="var(--fill-0, black)"/>
<rect id="Rectangle 90" y="147" width="34" height="2" fill="var(--fill-0, black)"/>
<rect id="Rectangle 87" x="186" y="15" width="18" height="2" fill="var(--fill-0, black)"/>
<rect id="Rectangle 91" y="152" width="18" height="2" fill="var(--fill-0, black)"/>
</g>
</svg>
