<?xml version="1.0" encoding="UTF-8"?> <svg xmlns="http://www.w3.org/2000/svg" width="290" height="147" fill="none" viewBox="0 0 290 147"><path fill="#fdd108" d="M187.623 30.045c0-2.789.49-5.489 1.396-8.051a37.5 37.5 0 0 0-9.486-1.206c-16.645 0-30.144 10.651-30.144 23.802 0 8.164 5.208 15.374 13.147 19.658 0 .012.013.025.025.05l.076 7.787c.025 1.997 2.327 3.09 3.887 1.86l7.499-5.942c1.786.264 3.61.402 5.497.402 11.5 0 21.489-5.087 26.572-12.56-11.072-5.25-18.482-14.835-18.482-25.775z"></path><path fill="#f6ac19" d="M225.681 0c-17.488 0-32.195 9.307-36.662 21.994 12.003 3.14 20.659 12.058 20.659 22.596 0 4.07-1.296 7.888-3.574 11.242 5.725 2.713 12.418 4.283 19.577 4.283a47.7 47.7 0 0 0 8.454-.754l7.952 6.293c1.56 1.244 3.875.138 3.887-1.859l.076-7.787c.163-.252.289-.515.402-.779 10.405-5.363 17.287-14.633 17.287-25.184C263.739 13.452 246.704 0 225.681 0"></path><path fill="#eb612a" d="M189.019 21.994a24.1 24.1 0 0 0-1.396 8.051c0 10.94 7.41 20.524 18.481 25.774 2.278-3.353 3.574-7.172 3.574-11.241 0-10.526-8.656-19.457-20.659-22.597z"></path><path fill="#231815" d="M30.358 146.117c-9.159 0-16.519-2.901-22.054-8.704Q0 128.709 0 114.163c0-9.697 2.705-17.371 8.102-23.048 5.398-5.665 12.62-8.504 21.64-8.504 5.875 0 11.147 2.123 15.802 6.356v-26.83c0-2.323.818-4.27 2.466-5.84 1.635-1.57 3.761-2.35 6.366-2.35 2.73 0 4.957.792 6.668 2.35 1.71 1.57 2.566 3.454 2.566 5.627v76.192c0 2.324-.855 4.233-2.566 5.741-1.711 1.494-3.938 2.248-6.668 2.248-4.378 0-7.184-1.909-8.417-5.74-4.24 3.818-9.436 5.74-15.588 5.74zm1.447-16.592c4.102 0 7.423-1.47 9.952-4.409s3.8-6.582 3.8-10.953-1.271-8.126-3.8-10.852-5.85-4.095-9.952-4.095c-4.101 0-7.624 1.369-10.153 4.095-2.529 2.738-3.8 6.343-3.8 10.852s1.259 8.027 3.8 10.953q3.793 4.409 10.153 4.409M105.656 146.117c-9.159 0-16.582-2.901-22.256-8.704s-8.517-13.553-8.517-23.25 2.768-17.371 8.304-23.048c5.535-5.665 12.82-8.504 21.853-8.504 6.429 0 12.028 2.248 16.821 6.758.541-1.633 1.573-3.002 3.082-4.095 1.498-1.093 3.284-1.633 5.335-1.633 2.73 0 4.957.791 6.668 2.361s2.566 3.455 2.566 5.628v46.499c0 2.324-.855 4.233-2.566 5.74-1.711 1.495-3.938 2.248-6.668 2.248-4.517 0-7.322-1.984-8.417-5.941-4.378 3.957-9.776 5.941-16.205 5.941m1.435-16.592c4.378 0 7.863-1.47 10.467-4.409 2.592-2.939 3.9-6.582 3.9-10.953s-1.295-8.126-3.9-10.852-6.089-4.095-10.467-4.095-7.7 1.369-10.367 4.095c-2.667 2.738-4 6.343-4 10.852s1.333 8.027 4 10.953c2.667 2.939 6.114 4.409 10.367 4.409M164.322 146.117c-2.604 0-4.793-.753-6.567-2.248s-2.667-3.416-2.667-5.74v-46.5c0-2.185.855-4.056 2.566-5.627s3.926-2.361 6.668-2.361 4.894.791 6.467 2.361 2.365 3.517 2.365 5.841v46.085q0 3.486-2.566 5.841c-1.711 1.57-3.8 2.361-6.253 2.361zM196.857 145.502c-2.604 0-4.793-.754-6.567-2.248s-2.667-3.417-2.667-5.741V91.63c0-2.186.855-4.057 2.566-5.628s3.926-2.361 6.668-2.361c2.466 0 4.479.716 6.052 2.148s2.491 3.178 2.768 5.225c1.509-2.324 3.56-4.296 6.152-5.941 2.592-1.633 5.334-2.462 8.203-2.462 1.774 0 3.485.201 5.133.615 1.912.553 3.485 1.608 4.718 3.178q1.85 2.356 1.849 5.427c0 2.863-.918 5.225-2.768 7.071s-4 2.487-6.466 1.947a23.5 23.5 0 0 0-5.335-.615c-3.145 0-5.749 1.092-7.8 3.278s-3.284 6.619-3.699 13.314v20.486q0 3.486-2.566 5.841c-1.711 1.57-3.8 2.362-6.253 2.362zM250.403 146.117c-2.605 0-4.794-.753-6.568-2.248s-2.667-3.416-2.667-5.74v-46.5c0-2.185.856-4.056 2.567-5.627s3.925-2.361 6.668-2.361c2.742 0 4.894.791 6.466 2.361s2.366 3.517 2.366 5.841v46.085q0 3.486-2.567 5.841c-1.711 1.57-3.799 2.361-6.253 2.361zM281.176 146.117c-2.604 0-4.793-.753-6.567-2.248s-2.667-3.416-2.667-5.74v-46.5c0-2.185.855-4.056 2.566-5.627s3.926-2.361 6.668-2.361 4.894.791 6.467 2.361 2.365 3.517 2.365 5.841v46.085q0 3.486-2.566 5.841c-1.711 1.57-3.8 2.361-6.253 2.361zM281.176 78.064c-2.604 0-4.793-.753-6.567-2.248s-2.667-3.417-2.667-5.74V68.14c0-2.185.855-4.057 2.566-5.627s3.926-2.361 6.668-2.361 4.894.791 6.467 2.361 2.365 3.517 2.365 5.84v1.533q0 3.486-2.566 5.84c-1.711 1.57-3.8 2.362-6.253 2.362z"></path></svg>
